<svg xmlns="http://www.w3.org/2000/svg" viewBox="0 0 32 32" shape-rendering="crispEdges"><g fill="#172032"><rect x="14" y="0" width="4" height="2"/><rect x="12" y="2" width="8" height="2"/><rect x="8" y="4" width="16" height="2"/><rect x="6" y="6" width="20" height="4"/><rect x="4" y="10" width="24" height="16"/><rect x="0" y="14" width="6" height="8"/><rect x="26" y="14" width="6" height="8"/><rect x="6" y="24" width="8" height="8"/><rect x="18" y="24" width="8" height="8"/></g><g fill="#f28c28"><rect x="14" y="2" width="4" height="2"/><rect x="8" y="6" width="16" height="2"/><rect x="6" y="8" width="20" height="16"/><rect x="2" y="16" width="6" height="4"/><rect x="24" y="16" width="6" height="4"/><rect x="8" y="22" width="6" height="8"/><rect x="18" y="22" width="6" height="8"/></g><g fill="#fff4da"><rect x="8" y="8" width="6" height="8"/><rect x="18" y="8" width="6" height="8"/></g><g fill="#172032"><rect x="10" y="8" width="4" height="6"/><rect x="20" y="8" width="4" height="6"/><rect x="8" y="16" width="4" height="2"/><rect x="10" y="18" width="12" height="2"/><rect x="22" y="16" width="6" height="2"/><rect x="26" y="14" width="2" height="2"/></g></svg>
