<svg xmlns="http://www.w3.org/2000/svg" viewBox="0 0 32 32" shape-rendering="crispEdges"><title>Apple mascot</title><g fill="#172032"><rect x="14" y="2" width="4" height="6"/><rect x="20" y="2" width="8" height="2"/><rect x="18" y="4" width="8" height="4"/><rect x="10" y="6" width="12" height="2"/><rect x="6" y="8" width="20" height="4"/><rect x="4" y="12" width="24" height="12"/><rect x="6" y="24" width="20" height="4"/><rect x="10" y="28" width="12" height="2"/></g><g fill="#c74632"><rect x="10" y="8" width="12" height="2"/><rect x="8" y="10" width="16" height="2"/><rect x="6" y="12" width="20" height="12"/><rect x="8" y="24" width="16" height="2"/><rect x="10" y="26" width="12" height="2"/></g><g fill="#f28c28"><rect x="8" y="12" width="4" height="8"/></g><g fill="#35d34a"><rect x="20" y="2" width="6" height="2"/><rect x="20" y="4" width="4" height="2"/></g><g fill="#172032"><rect x="10" y="16" width="2" height="2"/><rect x="20" y="16" width="2" height="2"/></g></svg>
