<svg xmlns="http://www.w3.org/2000/svg" viewBox="0 0 32 32" shape-rendering="crispEdges"><g fill="#172032"><rect x="6" y="4" width="20" height="2"/><rect x="2" y="6" width="28" height="4"/><rect x="0" y="10" width="32" height="14"/><rect x="2" y="24" width="28" height="4"/><rect x="8" y="28" width="16" height="4"/></g><g fill="#5596df"><rect x="6" y="6" width="20" height="2"/><rect x="4" y="8" width="24" height="2"/><rect x="2" y="10" width="28" height="12"/><rect x="4" y="22" width="24" height="4"/><rect x="10" y="26" width="12" height="2"/></g><g fill="#172032"><rect x="10" y="12" width="2" height="2"/><rect x="20" y="12" width="2" height="2"/><rect x="8" y="20" width="2" height="4"/><rect x="12" y="18" width="2" height="6"/><rect x="16" y="16" width="2" height="8"/><rect x="20" y="18" width="2" height="6"/></g></svg>
