<svg xmlns="http://www.w3.org/2000/svg" viewBox="0 0 32 32" shape-rendering="crispEdges"><g fill="#172032"><rect x="6" y="4" width="20" height="2"/><rect x="4" y="6" width="24" height="2"/><rect x="2" y="8" width="28" height="20"/><rect x="6" y="28" width="20" height="4"/></g><g fill="#c74632"><rect x="6" y="6" width="20" height="2"/><rect x="4" y="8" width="24" height="16"/><rect x="8" y="24" width="16" height="4"/></g><g fill="#f28c28"><rect x="6" y="10" width="10" height="12"/></g><g fill="#fff4da"><rect x="8" y="12" width="4" height="4"/><rect x="20" y="12" width="4" height="4"/></g><g fill="#172032"><rect x="10" y="14" width="2" height="4"/><rect x="22" y="14" width="2" height="4"/><rect x="10" y="22" width="2" height="2"/><rect x="12" y="24" width="8" height="2"/><rect x="20" y="22" width="2" height="2"/></g><g fill="#ffd56b"><rect x="14" y="18" width="2" height="6"/><rect x="18" y="16" width="2" height="8"/><rect x="22" y="20" width="2" height="4"/></g></svg>
